# xmcd
#
# Track frame offsets: 
#        150
#        12643
#        26288
#        39132
#        50727
#        60830
#        70977
#        82670
#        93693
#        104763
#        114850
#        125418
#        137872
#        148311
#        158155
#        169621
#        181745
#        192596
#
# Disc length: 2719 seconds
#
# Revision: 0
# Processed by: cddbd v1.5.2PL0 Copyright (c) Steve Scherf et al.
# Submitted via: ExactAudioCopy v0.99pb5
#
DISCID=f30a9d12
DTITLE=Various Artist - The Federal Singles d1
DYEAR=2014
DGENRE=R&B
TTITLE0=Please, Please, Please
TTITLE1=Why Do You Do Me
TTITLE2=I Don't Know
TTITLE3=I Feel That Old Feeling Coming On
TTITLE4=No, No, No
TTITLE5=Hold My Baby's Hand
TTITLE6=Just Won't Do RIght
TTITLE7=Let's Make It
TTITLE8=I Won't Plead No More
TTITLE9=Chonnie-On-Chon
TTITLE10=Can't Be The Same
TTITLE11=Gonna Try
TTITLE12=Love Or A Game
TTITLE13=Messing With The Blues
TTITLE14=You're Mine, You're Mine
TTITLE15=I Walked Alone
TTITLE16=Baby Cries Over The Ocean
TTITLE17=That Dood It
EXTD=
EXTT0=
EXTT1=
EXTT2=
EXTT3=
EXTT4=
EXTT5=
EXTT6=
EXTT7=
EXTT8=
EXTT9=
EXTT10=
EXTT11=
EXTT12=
EXTT13=
EXTT14=
EXTT15=
EXTT16=
EXTT17=
PLAYORDER=
